<svg width="58" height="53" viewBox="0 0 58 53" fill="none" xmlns="http://www.w3.org/2000/svg">
<path d="M0.000108919 21.4037C0.000108919 9.58277 9.73791 0 21.7501 0C33.7623 0 43.5001 9.58277 43.5001 21.4037C43.5001 33.2247 33.7623 42.8074 21.7501 42.8074C18.2577 42.8074 14.9526 41.9959 12.0239 40.5529L3.91463 42.6911C1.60427 43.3003 -0.509895 41.2199 0.109173 38.9463L2.28364 30.9603C1.94993 30.3031 1.64957 29.6268 1.38473 28.9334C0.489514 26.5896 0.000108919 24.0514 0.000108919 21.4037ZM21.75 45.8654C23.1289 45.8654 24.4816 45.7549 25.7995 45.5425C28.7224 47.6671 32.3371 48.9231 36.2499 48.9231C39.3288 48.9231 42.2173 48.1472 44.7309 46.7847C45.1994 46.5308 45.7496 46.465 46.2664 46.6013L53.4248 48.4888L51.5054 41.4394C51.3671 40.9315 51.4336 40.3906 51.691 39.9298C53.0712 37.4592 53.857 34.6211 53.857 31.5963C53.857 25.6891 50.8531 20.4723 46.2664 17.3446C45.9407 15.4253 45.3879 13.5818 44.6361 11.8415C52.485 15.072 57.9999 22.7004 57.9999 31.5963C57.9999 34.2439 57.5105 36.7822 56.6153 39.126C56.3504 39.8193 56.0501 40.4957 55.7164 41.1528L57.8908 49.1388C58.5099 51.4124 56.3957 53.4929 54.0854 52.8837L45.9761 50.7454C43.0474 52.1885 39.7423 53 36.2499 53C29.7785 53 23.9672 50.2187 19.983 45.8046C20.5667 45.8449 21.1559 45.8654 21.75 45.8654Z" fill="url(#paint0_linear_184_4287)"/>
<defs>
<linearGradient id="paint0_linear_184_4287" x1="60.9" y1="14.5751" x2="-3.81508" y2="15.1556" gradientUnits="userSpaceOnUse">
<stop offset="0.095163" stop-color="#FE2DB7"/>
<stop offset="0.471156" stop-color="#2936FF"/>
<stop offset="0.911126" stop-color="#6CF2FE"/>
</linearGradient>
</defs>
</svg>
