<svg width="20" height="20" viewBox="0 0 20 20" fill="none" xmlns="http://www.w3.org/2000/svg">
<path fill-rule="evenodd" clip-rule="evenodd" d="M10 1.46341C5.28494 1.46341 1.46343 5.28492 1.46343 9.99999C1.46343 11.5153 1.86231 12.9352 2.55503 14.1688C2.64648 14.3316 2.67219 14.5233 2.62689 14.7045L1.73736 18.2626L5.2955 17.3731C5.4767 17.3278 5.66837 17.3535 5.83123 17.445C7.06484 18.1377 8.48466 18.5366 10 18.5366C14.7151 18.5366 18.5366 14.7151 18.5366 9.99999C18.5366 5.28492 14.7151 1.46341 10 1.46341ZM1.55224e-05 9.99999C1.55224e-05 4.4767 4.47671 0 10 0C15.5233 0 20 4.4767 20 9.99999C20 15.5233 15.5233 20 10 20C8.3296 20 6.7569 19.5858 5.3744 18.8618L0.909187 19.9781C0.65984 20.0405 0.396069 19.9674 0.214327 19.7857C0.0325859 19.6039 -0.0404744 19.3402 0.0218624 19.0908L1.13816 14.6256C0.414248 13.2431 1.55224e-05 11.6704 1.55224e-05 9.99999Z" fill="#1F1F2C"/>
</svg>
