<svg width="18" height="18" viewBox="0 0 18 18" fill="none" xmlns="http://www.w3.org/2000/svg">
<path d="M7.07423 0.131053C7.17437 0.165116 7.27219 0.205635 7.36708 0.252354L8.50863 0.81439C8.81845 0.966928 9.18155 0.966928 9.49137 0.81439L10.6329 0.252354C11.8455 -0.344671 13.3125 0.154366 13.9096 1.36698L13.975 1.51144L14.0309 1.65983L14.4407 2.86445C14.5519 3.19139 14.8086 3.44813 15.1355 3.55935L16.3402 3.96913C17.6198 4.40442 18.3042 5.79462 17.8689 7.07423C17.8349 7.17437 17.7944 7.27219 17.7476 7.36708L17.1856 8.50863C17.0331 8.81845 17.0331 9.18155 17.1856 9.49137L17.7476 10.6329C18.3447 11.8455 17.8456 13.3125 16.633 13.9096C16.5381 13.9563 16.4403 13.9968 16.3402 14.0309L15.1355 14.4407C14.8086 14.5519 14.5519 14.8086 14.4407 15.1355L14.0309 16.3402C13.5956 17.6198 12.2054 18.3042 10.9258 17.8689C10.8256 17.8349 10.7278 17.7944 10.6329 17.7476L9.49137 17.1856C9.18155 17.0331 8.81845 17.0331 8.50863 17.1856L7.36708 17.7476C6.15446 18.3447 4.68746 17.8456 4.09043 16.633C4.04371 16.5381 4.00319 16.4403 3.96913 16.3402L3.55935 15.1355C3.44813 14.8086 3.19139 14.5519 2.86445 14.4407L1.65983 14.0309C0.38022 13.5956 -0.304237 12.2054 0.131053 10.9258C0.165116 10.8256 0.205635 10.7278 0.252354 10.6329L0.81439 9.49137C0.966928 9.18155 0.966928 8.81845 0.81439 8.50863L0.252354 7.36708C-0.344671 6.15446 0.154366 4.68746 1.36698 4.09043C1.46188 4.04371 1.5597 4.00319 1.65983 3.96913L2.86445 3.55935C3.19139 3.44813 3.44813 3.19139 3.55935 2.86445L3.96913 1.65983C4.40442 0.38022 5.79462 -0.304237 7.07423 0.131053ZM5.23292 2.08974L4.82314 3.29436C4.57846 4.01362 4.01362 4.57846 3.29436 4.82314L2.08974 5.23292C2.04422 5.2484 1.99976 5.26682 1.95663 5.28805C1.40544 5.55943 1.1786 6.22625 1.44998 6.77744L2.01201 7.91899C2.3476 8.6006 2.3476 9.3994 2.01201 10.081L1.44998 11.2226C1.42874 11.2657 1.41032 11.3102 1.39484 11.3557C1.19698 11.9373 1.5081 12.5692 2.08974 12.7671L3.29436 13.1769C4.01362 13.4215 4.57846 13.9864 4.82314 14.7056L5.23292 15.9103C5.2484 15.9558 5.26682 16.0002 5.28805 16.0434C5.55943 16.5946 6.22625 16.8214 6.77744 16.55L7.91899 15.988C8.6006 15.6524 9.3994 15.6524 10.081 15.988L11.2226 16.55C11.2657 16.5713 11.3102 16.5897 11.3557 16.6052C11.9373 16.803 12.5692 16.4919 12.7671 15.9103L13.1769 14.7056C13.4215 13.9864 13.9864 13.4215 14.7056 13.1769L15.9103 12.7671C15.9558 12.7516 16.0002 12.7332 16.0434 12.7119C16.5946 12.4406 16.8214 11.7738 16.55 11.2226L15.988 10.081C15.6524 9.3994 15.6524 8.6006 15.988 7.91899L16.55 6.77744C16.5713 6.73431 16.5897 6.68984 16.6052 6.64433C16.803 6.06269 16.4919 5.43077 15.9103 5.23292L14.7056 4.82314C13.9864 4.57846 13.4215 4.01362 13.1769 3.29436L12.7671 2.08974L12.7417 2.02229L12.7119 1.95663L12.6566 1.85712C12.3577 1.37903 11.7393 1.19556 11.2226 1.44998L10.081 2.01201C9.3994 2.3476 8.6006 2.3476 7.91899 2.01201L6.77744 1.44998C6.73431 1.42874 6.68984 1.41032 6.64433 1.39484C6.06269 1.19698 5.43077 1.5081 5.23292 2.08974ZM7.26498 11.126L12.0878 6.3032C12.3484 6.04254 12.7711 6.04254 13.0317 6.3032C13.2687 6.54016 13.2902 6.91096 13.0963 7.17226L13.0317 7.24712L7.69209 12.5867C7.43769 12.8411 7.03338 12.845 6.77423 12.6116L6.70737 12.5421L4.48253 9.87226C4.24654 9.58908 4.2848 9.1682 4.56799 8.93222C4.82543 8.71768 5.19666 8.7298 5.43933 8.94654L5.50803 9.01768L7.26498 11.126L12.0878 6.3032L7.26498 11.126Z" fill="#1F1F2C"/>
</svg>
