<svg width="23" height="21" viewBox="0 0 23 21" fill="none" xmlns="http://www.w3.org/2000/svg">
<path fill-rule="evenodd" clip-rule="evenodd" d="M11.5001 5.24053C10.7545 5.24053 10.0832 4.78112 9.80209 4.07849C9.80294 4.08061 9.80238 4.07957 9.80022 4.07557C9.78712 4.05131 9.71511 3.91794 9.53924 3.71388C9.34993 3.49422 9.08674 3.24746 8.75894 3.02591C8.1121 2.58873 7.25608 2.27395 6.20592 2.38997C4.67103 2.55952 3.72518 3.29896 3.139 4.19947C2.51508 5.15793 2.27637 6.34698 2.3445 7.29563C2.41598 8.29089 2.52805 9.06046 3.04645 10.0513C3.59817 11.1059 4.66853 12.514 6.87126 14.5783C8.952 16.5283 10.4074 17.7971 11.3345 18.5615C11.4128 18.6261 11.4701 18.6344 11.5001 18.6344C11.5301 18.6344 11.5874 18.6261 11.6657 18.5615C12.5928 17.7971 14.0482 16.5283 16.1289 14.5783C18.3316 12.514 19.402 11.1059 19.9537 10.0513C20.4721 9.06046 20.5842 8.29089 20.6557 7.29563C20.7235 6.35096 20.4827 5.16187 19.8558 4.20124C19.2661 3.29756 18.3185 2.55904 16.7934 2.38988C15.9056 2.29139 15.0413 2.58395 14.3139 3.05576C13.9552 3.28846 13.6613 3.54549 13.4517 3.77069C13.2578 3.97907 13.1934 4.09751 13.1913 4.09639C13.1908 4.09614 13.1933 4.09028 13.198 4.07849C12.9169 4.78112 12.2456 5.24053 11.5001 5.24053ZM10.2657 1.84317C10.9224 2.39368 11.3463 2.99056 11.5001 3.37494C11.651 2.99781 12.1049 2.42064 12.7751 1.88254C13.7871 1.0701 15.2922 0.346716 16.9921 0.535278C21.1894 1.00086 22.6735 4.79478 22.4841 7.43161C22.3243 9.65621 21.916 11.6911 17.3709 15.9506C15.2704 17.9191 13.7851 19.2152 12.8199 20.011C12.0292 20.663 10.971 20.663 10.1803 20.011C9.21514 19.2152 7.72977 17.9191 5.62929 15.9506C1.08418 11.6911 0.67581 9.65621 0.516042 7.43161C0.326667 4.79478 1.79348 1.00086 6.00805 0.535278C7.8472 0.332108 9.30537 1.03803 10.2657 1.84317Z" fill="#1F1F2C"/>
<path d="M17.5 17.5C19.1569 17.5 20.5 16.1569 20.5 14.5C20.5 12.8431 19.1569 11.5 17.5 11.5C15.8431 11.5 14.5 12.8431 14.5 14.5C14.5 16.1569 15.8431 17.5 17.5 17.5Z" fill="#FF3B30" stroke="white" stroke-width="2"/>
</svg>
