<svg width="32" height="28" viewBox="0 0 32 28" fill="none" xmlns="http://www.w3.org/2000/svg">
<path d="M17.0861 26.719L17.0855 26.7193C16.8598 26.8569 16.6229 26.9855 16.4076 27.0773C16.1742 27.1768 16.0415 27.2 16 27.2C15.9585 27.2 15.8258 27.1768 15.5924 27.0773C15.3771 26.9855 15.1402 26.8569 14.9145 26.7193C10.5503 24.0584 7.004 21.1915 4.55695 18.2356C2.10949 15.2792 0.8 12.2825 0.8 9.33831C0.8 4.26446 4.47579 0.8 9.09091 0.8C11.9173 0.8 14.0386 2.25978 15.3043 4.48892L15.9922 5.70043L16.6918 4.49565C17.9915 2.25754 20.1013 0.8 22.9249 0.8C27.5233 0.8 31.2 4.26355 31.2 9.33831C31.2 12.2831 29.894 15.2798 27.4488 18.2358C25.0039 21.1915 21.4579 24.0582 17.0861 26.719Z" stroke="#FF3B30" stroke-width="1.6"/>
</svg>
