<svg width="20" height="20" viewBox="0 0 20 20" fill="none" xmlns="http://www.w3.org/2000/svg">
<path d="M20 10C20 4.47715 15.5228 0 10 0C4.47715 0 0 4.47715 0 10C0 15.5228 4.47715 20 10 20C15.5228 20 20 15.5228 20 10ZM10 12C9.65482 12 9.375 11.7202 9.375 11.375V5.125C9.375 4.77982 9.65482 4.5 10 4.5C10.3452 4.5 10.625 4.77982 10.625 5.125V11.375C10.625 11.7202 10.3452 12 10 12ZM10 13.5C10.5523 13.5 11 13.9477 11 14.5C11 15.0523 10.5523 15.5 10 15.5C9.44771 15.5 9 15.0523 9 14.5C9 13.9477 9.44771 13.5 10 13.5Z" fill="#D8D8DC"/>
</svg>
