<svg width="15" height="18" viewBox="0 0 15 18" fill="none" xmlns="http://www.w3.org/2000/svg">
<path d="M8.90625 11.3684C8.90625 12.1532 8.27665 12.7895 7.5 12.7895C6.72335 12.7895 6.09375 12.1532 6.09375 11.3684C6.09375 10.5836 6.72335 9.94737 7.5 9.94737C8.27665 9.94737 8.90625 10.5836 8.90625 11.3684ZM3.75 4.73684V3.78947C3.75 1.69661 5.42893 0 7.5 0C9.57107 0 11.25 1.69661 11.25 3.78947V4.73684H12.0703C13.6883 4.73684 15 6.06231 15 7.69737V15.0395C15 16.6745 13.6883 18 12.0703 18H2.92969C1.31167 18 0 16.6745 0 15.0395V7.69737C0 6.06231 1.31167 4.73684 2.92969 4.73684H3.75ZM4.92188 3.78947V4.73684H10.0781V3.78947C10.0781 2.35063 8.92386 1.18421 7.5 1.18421C6.07614 1.18421 4.92188 2.35063 4.92188 3.78947ZM2.92969 5.92105C1.95887 5.92105 1.17188 6.71634 1.17188 7.69737V15.0395C1.17188 16.0205 1.95887 16.8158 2.92969 16.8158H12.0703C13.0411 16.8158 13.8281 16.0205 13.8281 15.0395V7.69737C13.8281 6.71634 13.0411 5.92105 12.0703 5.92105H2.92969Z" fill="#1F1F2C"/>
</svg>
