<svg width="19" height="18" viewBox="0 0 19 18" fill="none" xmlns="http://www.w3.org/2000/svg">
<path d="M12.0333 18C12.3831 18 12.6667 17.7122 12.6667 17.3571C12.6667 17.0021 12.3831 16.7143 12.0333 16.7143H3.8C2.40088 16.7143 1.26667 15.563 1.26667 14.1429V3.85714C1.26667 2.43698 2.40088 1.28571 3.8 1.28571H12.0333C12.3831 1.28571 12.6667 0.997897 12.6667 0.642857C12.6667 0.287817 12.3831 0 12.0333 0H3.8C1.70132 0 0 1.7269 0 3.85714V14.1429C0 16.2731 1.70132 18 3.8 18H12.0333ZM13.4855 4.04543C13.7328 3.79438 14.1338 3.79438 14.3812 4.04543L18.8145 8.54543C19.0618 8.79648 19.0618 9.20352 18.8145 9.45457L14.3812 13.9546C14.1338 14.2056 13.7328 14.2056 13.4855 13.9546C13.2382 13.7035 13.2382 13.2965 13.4855 13.0454L16.8377 9.64286H5.7C5.35022 9.64286 5.06667 9.35504 5.06667 9C5.06667 8.64496 5.35022 8.35714 5.7 8.35714H16.8377L13.4855 4.95457C13.2382 4.70352 13.2382 4.29648 13.4855 4.04543Z" fill="#1F1F2C"/>
</svg>
