<svg width="21" height="21" viewBox="0 0 21 21" fill="none" xmlns="http://www.w3.org/2000/svg">
<path d="M10.5001 1.96341C5.78555 1.96341 1.96364 5.78537 1.96364 10.5C1.96364 12.0551 2.37888 13.5113 3.10414 14.7659C3.18675 14.9088 3.2079 15.079 3.16275 15.2378L2.13038 18.8682L5.7599 17.836C5.91873 17.7909 6.08909 17.8121 6.23203 17.8947C7.48707 18.6208 8.94412 19.0366 10.5001 19.0366C15.2147 19.0366 19.0366 15.2146 19.0366 10.5C19.0366 5.78537 15.2147 1.96341 10.5001 1.96341ZM0.744138 10.5C0.744138 5.11186 5.11204 0.743902 10.5001 0.743902C15.8882 0.743902 20.2561 5.11186 20.2561 10.5C20.2561 15.8881 15.8882 20.2561 10.5001 20.2561C8.81738 20.2561 7.2326 19.8296 5.84968 19.0784L1.83237 20.2208C1.18911 20.4037 0.594857 19.8095 0.777784 19.1662L1.92046 15.1479C1.17014 13.7656 0.744138 12.1817 0.744138 10.5ZM6.59773 8.67073C6.59773 8.33397 6.87072 8.06098 7.20747 8.06098H13.7928C14.1295 8.06098 14.4025 8.33397 14.4025 8.67073C14.4025 9.00749 14.1295 9.28049 13.7928 9.28049H7.20747C6.87072 9.28049 6.59773 9.00749 6.59773 8.67073ZM7.20747 11.7195C6.87072 11.7195 6.59773 11.9925 6.59773 12.3293C6.59773 12.666 6.87072 12.939 7.20747 12.939H11.8416C12.1783 12.939 12.4513 12.666 12.4513 12.3293C12.4513 11.9925 12.1783 11.7195 11.8416 11.7195H7.20747Z" fill="#1F1F2C"/>
<path fill-rule="evenodd" clip-rule="evenodd" d="M10.5001 0.987805C5.24674 0.987805 0.988038 5.24656 0.988038 10.5C0.988038 12.1401 1.4034 13.6841 2.13482 15.0316L2.18226 15.119L1.01238 19.2329C0.88172 19.6924 1.30619 20.1169 1.76566 19.9862L5.87867 18.8166L5.9661 18.864C7.31418 19.5963 8.85905 20.0122 10.5001 20.0122C15.7535 20.0122 20.0122 15.7534 20.0122 10.5C20.0122 5.24656 15.7535 0.987805 10.5001 0.987805ZM0.500239 10.5C0.500239 4.97715 4.97734 0.5 10.5001 0.5C16.0229 0.5 20.5 4.97715 20.5 10.5C20.5 16.0228 16.0229 20.5 10.5001 20.5C8.81133 20.5 7.21818 20.0807 5.82139 19.34L1.89909 20.4554C1.07203 20.6906 0.307996 19.9265 0.543186 19.0995L1.65885 15.1762C0.919025 13.78 0.500239 12.1878 0.500239 10.5ZM1.71974 10.5C1.71974 5.65067 5.65085 1.71951 10.5001 1.71951C15.3494 1.71951 19.2805 5.65067 19.2805 10.5C19.2805 15.3493 15.3494 19.2805 10.5001 19.2805C8.9001 19.2805 7.40107 18.8528 6.10989 18.1059C6.02413 18.0562 5.92192 18.0435 5.82662 18.0706L1.77604 19.2225L2.92815 15.1711C2.95524 15.0758 2.94255 14.9737 2.89298 14.8879C2.14685 13.5973 1.71974 12.0991 1.71974 10.5ZM10.5001 2.20732C5.92025 2.20732 2.20754 5.92008 2.20754 10.5C2.20754 12.0111 2.61091 13.4253 3.31529 14.6438C3.43095 14.8438 3.46055 15.0823 3.39735 15.3045L2.48471 18.5139L5.69319 17.6014C5.91555 17.5382 6.15406 17.5679 6.35416 17.6836C7.57308 18.3888 8.98814 18.7927 10.5001 18.7927C15.08 18.7927 18.7927 15.0799 18.7927 10.5C18.7927 5.92008 15.08 2.20732 10.5001 2.20732ZM7.20748 8.30488C7.00542 8.30488 6.84163 8.46868 6.84163 8.67073C6.84163 8.87279 7.00542 9.03659 7.20748 9.03659H13.7928C13.9948 9.03659 14.1586 8.87279 14.1586 8.67073C14.1586 8.46868 13.9948 8.30488 13.7928 8.30488H7.20748ZM6.35383 8.67073C6.35383 8.19927 6.73602 7.81707 7.20748 7.81707H13.7928C14.2642 7.81707 14.6464 8.19927 14.6464 8.67073C14.6464 9.14219 14.2642 9.52439 13.7928 9.52439H7.20748C6.73602 9.52439 6.35383 9.14219 6.35383 8.67073ZM6.35383 12.3293C6.35383 11.8578 6.73602 11.4756 7.20748 11.4756H11.8416C12.313 11.4756 12.6952 11.8578 12.6952 12.3293C12.6952 12.8007 12.313 13.1829 11.8416 13.1829H7.20748C6.73602 13.1829 6.35383 12.8007 6.35383 12.3293ZM7.20748 11.9634C7.00542 11.9634 6.84163 12.1272 6.84163 12.3293C6.84163 12.5313 7.00542 12.6951 7.20748 12.6951H11.8416C12.0436 12.6951 12.2074 12.5313 12.2074 12.3293C12.2074 12.1272 12.0436 11.9634 11.8416 11.9634H7.20748Z" fill="#1F1F2C"/>
</svg>
