<svg width="16" height="16" viewBox="0 0 16 16" fill="none" xmlns="http://www.w3.org/2000/svg">
<path fill-rule="evenodd" clip-rule="evenodd" d="M3.52851 7.52857C3.78886 7.26823 4.21097 7.26823 4.47132 7.52857L7.13799 10.1952C7.39834 10.4556 7.39834 10.8777 7.13799 11.1381C6.87764 11.3984 6.45553 11.3984 6.19518 11.1381L3.52851 8.47138C3.26816 8.21103 3.26816 7.78892 3.52851 7.52857Z" fill="#76768C"/>
<path fill-rule="evenodd" clip-rule="evenodd" d="M12.4714 4.86195C12.7318 5.1223 12.7318 5.54441 12.4714 5.80476L7.13807 11.1381C6.87772 11.3984 6.45561 11.3984 6.19526 11.1381C5.93491 10.8777 5.93491 10.4556 6.19526 10.1953L11.5286 4.86195C11.7889 4.6016 12.2111 4.6016 12.4714 4.86195Z" fill="#76768C"/>
</svg>
