<svg width="23" height="23" viewBox="0 0 23 23" fill="none" xmlns="http://www.w3.org/2000/svg">
<path d="M18.5711 4.42893C22.4763 8.33418 22.4763 14.6658 18.5711 18.571C14.6658 22.4763 8.33417 22.4763 4.42894 18.571C0.523687 14.6658 0.523687 8.33416 4.42894 4.42893C8.33419 0.523689 14.6658 0.523689 18.5711 4.42893Z" stroke="#1F1F2C" stroke-width="1.5" stroke-linecap="round" stroke-linejoin="round"/>
<path d="M13.7102 7.41544C14.9307 8.63604 14.9307 10.615 13.7102 11.8357C12.4896 13.0562 10.5106 13.0562 9.28995 11.8357C8.06937 10.615 8.06937 8.63604 9.28995 7.41544C10.5106 6.19485 12.4896 6.19485 13.7102 7.41544Z" stroke="#1F1F2C" stroke-width="1.5" stroke-linecap="round" stroke-linejoin="round"/>
<path d="M17.8409 19.2311C16.2465 17.5522 13.9976 16.5 11.4998 16.5C9.00203 16.5 6.75314 17.5522 5.15869 19.2322" stroke="#1F1F2C" stroke-width="1.5" stroke-linecap="round" stroke-linejoin="round"/>
</svg>
