<svg width="18" height="18" viewBox="0 0 18 18" fill="none" xmlns="http://www.w3.org/2000/svg">
<path d="M9 0C13.9706 0 18 4.02909 18 8.99923C18 13.9694 13.9706 17.9985 9 17.9985C7.54354 17.9985 6.13604 17.6516 4.87157 16.9978L1.42834 17.9583C0.82991 18.1254 0.209323 17.7757 0.0422152 17.1774C-0.0130822 16.9794 -0.0130554 16.77 0.0422532 16.5721L1.00315 13.1319C0.34773 11.8664 0 10.4573 0 8.99923C0 4.02909 4.02944 0 9 0ZM9 1.34988C4.77502 1.34988 1.35 4.77461 1.35 8.99923C1.35 10.3218 1.6855 11.5941 2.31573 12.7226L2.45131 12.9654L1.44986 16.5508L5.0378 15.55L5.28038 15.6852C6.40805 16.3139 7.67897 16.6486 9 16.6486C13.225 16.6486 16.65 13.2238 16.65 8.99923C16.65 4.77461 13.225 1.34988 9 1.34988ZM9 12.149C9.49706 12.149 9.9 12.5519 9.9 13.0489C9.9 13.5459 9.49706 13.9488 9 13.9488C8.50294 13.9488 8.1 13.5459 8.1 13.0489C8.1 12.5519 8.50294 12.149 9 12.149ZM9 4.27463C10.3669 4.27463 11.475 5.38263 11.475 6.74942C11.475 7.65902 11.2072 8.16594 10.529 8.87196L10.3773 9.02652C9.81759 9.58618 9.675 9.82381 9.675 10.3491C9.675 10.7219 9.37279 11.0241 9 11.0241C8.62721 11.0241 8.325 10.7219 8.325 10.3491C8.325 9.43951 8.59279 8.9326 9.27103 8.22657L9.4227 8.07201C9.98241 7.51235 10.125 7.27472 10.125 6.74942C10.125 6.12815 9.62132 5.62452 9 5.62452C8.41751 5.62452 7.93842 6.06717 7.88081 6.63441L7.875 6.74942C7.875 7.12218 7.57279 7.42436 7.2 7.42436C6.82721 7.42436 6.525 7.12218 6.525 6.74942C6.525 5.38263 7.63309 4.27463 9 4.27463Z" fill="#1F1F2C"/>
</svg>
