<svg width="23" height="23" viewBox="0 0 23 23" fill="none" xmlns="http://www.w3.org/2000/svg">
<path d="M18.5711 4.42893C22.4763 8.33418 22.4763 14.6658 18.5711 18.571C14.6658 22.4763 8.33417 22.4763 4.42894 18.571C0.523687 14.6658 0.523687 8.33416 4.42894 4.42893C8.33419 0.523689 14.6658 0.523689 18.5711 4.42893Z" fill="#1F1F2C" stroke="#1F1F2C" stroke-width="1.5" stroke-linecap="round" stroke-linejoin="round"/>
<path d="M13.6214 7.37867C14.7929 8.55025 14.7929 10.4497 13.6214 11.6214C12.4498 12.7929 10.5503 12.7929 9.37867 11.6214C8.20711 10.4497 8.20711 8.55025 9.37867 7.37867C10.5503 6.20711 12.4498 6.20711 13.6214 7.37867Z" stroke="white" stroke-width="1.5" stroke-linecap="round" stroke-linejoin="round"/>
<path d="M17.3174 18.3742C15.8087 17.1452 13.6808 16.375 11.3174 16.375C8.95397 16.375 6.82606 17.1452 5.31738 18.375" stroke="white" stroke-width="1.5" stroke-linecap="round" stroke-linejoin="round"/>
</svg>
