<svg width="21" height="21" viewBox="0 0 21 21" fill="none" xmlns="http://www.w3.org/2000/svg">
<path d="M0.5 10.5C0.5 4.97715 4.97715 0.5 10.5 0.5C16.0228 0.5 20.5 4.97715 20.5 10.5C20.5 16.0228 16.0228 20.5 10.5 20.5C8.77517 20.5 7.15075 20.0628 5.73325 19.2928L1.61546 20.4638C0.956098 20.6513 0.346986 20.0422 0.534487 19.3829L1.70574 15.2641C0.936655 13.8472 0.5 12.2238 0.5 10.5ZM6.5 8.625C6.5 8.97018 6.77982 9.25 7.125 9.25H13.875C14.2202 9.25 14.5 8.97018 14.5 8.625C14.5 8.27982 14.2202 8 13.875 8H7.125C6.77982 8 6.5 8.27982 6.5 8.625ZM7.125 11.75C6.77982 11.75 6.5 12.0298 6.5 12.375C6.5 12.7202 6.77982 13 7.125 13H11.875C12.2202 13 12.5 12.7202 12.5 12.375C12.5 12.0298 12.2202 11.75 11.875 11.75H7.125Z" fill="#1F1F2C"/>
</svg>
