<svg width="22" height="20" viewBox="0 0 22 20" fill="none" xmlns="http://www.w3.org/2000/svg">
<path fill-rule="evenodd" clip-rule="evenodd" d="M12.0326 19.5731C11.6957 19.7866 11.2826 20 11 20C10.7174 20 10.3043 19.7866 9.96739 19.5731C3.90217 15.7311 0 11.2273 0 6.67022C0 2.73212 2.77174 0 6.25 0C8.02061 0 9.43433 0.786622 10.4137 2.03206L8.56057 5.44566C8.45129 5.64698 8.49278 5.8968 8.66126 6.05198L12.2878 9.39219L10.1375 11.6556C9.94731 11.8558 9.95542 12.1723 10.1556 12.3625C10.3558 12.5527 10.6723 12.5446 10.8625 12.3444L13.3625 9.7128C13.4548 9.61568 13.5042 9.48562 13.4997 9.35175C13.4953 9.21788 13.4373 9.09139 13.3387 9.00065L9.62529 5.58037L11.4394 2.23855C11.4406 2.23638 11.4418 2.2342 11.4429 2.23202C12.4371 0.871412 13.8973 0 15.7609 0C19.2283 0 22 2.73212 22 6.67022C22 11.2273 18.1087 15.7311 12.0326 19.5731Z" fill="#1F1F2C"/>
</svg>
