<svg width="34" height="30" viewBox="0 0 34 30" fill="none" xmlns="http://www.w3.org/2000/svg">
<path d="M18.502 28.4023L18.0861 27.719L18.0855 27.7193L18.502 28.4023ZM17 5.09392L16.3043 5.48892L16.9922 6.70043L17.6918 5.49565L17 5.09392ZM15.498 28.4023L15.0816 29.0854L15.498 28.4023ZM17.9757 5.01989C18.1554 4.61625 17.9738 4.14338 17.5701 3.96371C17.1665 3.78405 16.6936 3.96562 16.514 4.36927L17.9757 5.01989ZM14.7789 10.2348L14.048 9.90951C13.8932 10.2573 14.0049 10.666 14.3151 10.8867L14.7789 10.2348ZM20.7313 14.4696L21.2997 15.0326C21.4649 14.8658 21.5485 14.6349 21.5283 14.401C21.5082 14.1671 21.3863 13.9539 21.1951 13.8178L20.7313 14.4696ZM16.7724 17.3303C16.4615 17.6442 16.4639 18.1508 16.7779 18.4617C17.0918 18.7726 17.5983 18.7701 17.9092 18.4562L16.7724 17.3303ZM16.0118 7.4647L16.7427 7.79001L16.0118 7.4647ZM17 29.8C17.3696 29.8 17.7428 29.6737 18.0351 29.5491C18.3455 29.4168 18.654 29.2466 18.9184 29.0854L18.0855 27.7193C17.8598 27.8569 17.6229 27.9855 17.4076 28.0773C17.1742 28.1768 17.0415 28.2 17 28.2V29.8ZM18.9179 29.0857C23.384 26.3676 27.087 23.3923 29.6817 20.2556C32.276 17.1193 33.8 13.7735 33.8 10.3383H32.2C32.2 13.2831 30.894 16.2798 28.4488 19.2358C26.0039 22.1915 22.4579 25.0582 18.0861 27.719L18.9179 29.0857ZM33.8 10.3383C33.8 4.3864 29.4135 0.2 23.9249 0.2V1.8C28.5233 1.8 32.2 5.26355 32.2 10.3383H33.8ZM23.9249 0.2C20.456 0.2 17.8544 2.02955 16.3082 4.69218L17.6918 5.49565C18.9915 3.25754 21.1013 1.8 23.9249 1.8V0.2ZM17.6957 4.69891C16.1788 2.02731 13.557 0.2 10.0909 0.2V1.8C12.9173 1.8 15.0386 3.25978 16.3043 5.48892L17.6957 4.69891ZM10.0909 0.2C4.58746 0.2 0.2 4.38549 0.2 10.3383H1.8C1.8 5.26446 5.47579 1.8 10.0909 1.8V0.2ZM0.2 10.3383C0.2 13.7741 1.72845 17.12 4.32447 20.2559C6.9209 23.3923 10.6236 26.3674 15.0816 29.0854L15.9145 27.7193C11.5503 25.0584 8.004 22.1915 5.55695 19.2356C3.10949 16.2792 1.8 13.2825 1.8 10.3383H0.2ZM15.0816 29.0854C15.346 29.2466 15.6545 29.4168 15.9649 29.5491C16.2572 29.6737 16.6304 29.8 17 29.8V28.2C16.9585 28.2 16.8258 28.1768 16.5924 28.0773C16.3771 27.9855 16.1402 27.8569 15.9145 27.7193L15.0816 29.0854ZM14.3151 10.8867L20.2675 15.1215L21.1951 13.8178L15.2426 9.58296L14.3151 10.8867ZM20.1629 13.9067L16.7724 17.3303L17.9092 18.4562L21.2997 15.0326L20.1629 13.9067ZM16.514 4.36927L15.281 7.13939L16.7427 7.79001L17.9757 5.01989L16.514 4.36927ZM15.281 7.13939L14.048 9.90951L15.5097 10.5601L16.7427 7.79001L15.281 7.13939Z" fill="black"/>
</svg>
