<svg width="20" height="13" viewBox="0 0 20 13" fill="none" xmlns="http://www.w3.org/2000/svg">
<path d="M18.7805 8.065C18.8655 8.33 19.1105 8.5 19.3755 8.5C19.4405 8.5 19.5005 8.49 19.5655 8.47C19.8905 8.365 20.0755 8.015 19.9705 7.685L19.9701 7.68375C19.9257 7.54977 17.4209 0 10.0002 0C2.57955 0 0.0747913 7.54975 0.030333 7.68375L0.0299186 7.685C-0.0750847 8.015 0.104921 8.365 0.434931 8.47C0.764941 8.575 1.11495 8.395 1.21995 8.065C1.30996 7.785 3.47502 1.25 10.0002 1.25C16.5254 1.25 18.6905 7.785 18.7805 8.065ZM10.0003 13C12.4857 13 14.5004 10.9853 14.5004 8.5C14.5004 6.01472 12.4857 4 10.0003 4C7.51495 4 5.50017 6.01472 5.50017 8.5C5.50017 10.9853 7.51495 13 10.0003 13Z" fill="#AEAEB2"/>
</svg>
